<svg id="Capa_1" enable-background="new 0 0 512 512" height="512" viewBox="0 0 512 512" width="512" xmlns="http://www.w3.org/2000/svg"><g><path d="m437.02 74.98c-48.353-48.351-112.64-74.98-181.02-74.98s-132.667 26.629-181.02 74.98c-48.351 48.353-74.98 112.64-74.98 181.02s26.629 132.667 74.98 181.02c48.353 48.351 112.64 74.98 181.02 74.98s132.667-26.629 181.02-74.98c48.351-48.353 74.98-112.64 74.98-181.02s-26.629-132.667-74.98-181.02zm-21.214 340.826c-42.686 42.686-99.439 66.194-159.806 66.194s-117.12-23.508-159.806-66.194-66.194-99.439-66.194-159.806 23.508-117.12 66.194-159.806 99.439-66.194 159.806-66.194 117.12 23.508 159.806 66.194 66.194 99.439 66.194 159.806-23.508 117.12-66.194 159.806z"/><path d="m256 312.895c-21.783 0-42.821 9.114-57.719 25.005l-31.004 33.07 21.886 20.519 31.004-33.07c9.25-9.866 22.31-15.524 35.833-15.524s26.584 5.658 35.834 15.524l31.005 33.07 21.885-20.519-31.004-33.07c-14.899-15.891-35.937-25.005-57.72-25.005z"/><path d="m185.059 265.356v-52.216c3.525 2.908 6.789 6.18 9.739 9.798l11.185 13.716 23.25-18.959-11.185-13.716c-16.621-20.383-40.172-33.194-66.314-36.073l-33.512-3.691-3.284 29.819s37.949 4.29 40.122 4.74v66.583h29.999z"/><path d="m360.268 167.906c-26.144 2.878-49.694 15.689-66.315 36.073l-11.185 13.716 23.25 18.959 11.185-13.716c2.95-3.618 6.214-6.89 9.739-9.798v52.217h30v-66.582c2.173-.45 40.122-4.74 40.122-4.74l-3.285-29.819z"/></g></svg>